<?xml version="1.0" encoding="UTF-8"?>
<!DOCTYPE svg PUBLIC "-//W3C//DTD SVG 1.1//EN" "http://www.w3.org/Graphics/SVG/1.1/DTD/svg11.dtd">
<!-- Creator: CorelDRAW 2019 (64 Bit) -->
<?xml-stylesheet href="OrgaMoney - R.css" type="text/css"?>
<svg xmlns="http://www.w3.org/2000/svg" xml:space="preserve" width="201.966mm" height="207.375mm" version="1.1" style="shape-rendering:geometricPrecision; text-rendering:geometricPrecision; image-rendering:optimizeQuality; fill-rule:evenodd; clip-rule:evenodd"
viewBox="0 0 1985.79 2038.97"
 xmlns:xlink="http://www.w3.org/1999/xlink">
 <g id="Camada_x0020_1">
  <metadata id="CorelCorpID_0Corel-Layer"/>
  <g id="_2468896023600">
   <path class="fil0" d="M1842.08 1365.78c-19.2,67.65 -44.5,132.1 -75.89,193.29 -80.83,157.98 -195.17,277.37 -343.04,358.2 -148.33,81.28 -308.14,121.7 -479.43,121.7 -185.99,0 -351.77,-45 -498.26,-134.55 -146.03,-89.55 -257.17,-211.7 -332.48,-366.92 -75.31,-154.76 -112.97,-318.7 -112.97,-491.83 0,-326.97 88.17,-583.22 264.05,-768.29 175.89,-185.07 402.74,-277.37 681.04,-277.37 182.31,0 346.26,43.63 492.75,130.42l-2.17 0.64c203.43,132.63 325.92,307.31 386.3,514.24l-217.13 317.98c-13.97,-407.5 -189.27,-652.19 -533.42,-726.48 -40.25,-7.24 -81.89,-10.87 -124.95,-10.87 -184.61,0 -343.5,63.37 -476.68,190.12 -133.18,126.75 -199.77,337.99 -199.77,634.19 0,237.42 63.83,424.33 191.5,560.72 127.67,136.39 287.94,204.82 480.81,204.82 196.55,0 357.74,-68.88 484.94,-206.65 66.45,-72.23 115.48,-160.35 147.09,-264.38l-193.26 -18.95 461.07 -675.23 143.61 725.61 -143.7 -10.41z"/>
   <g>
    <path class="fil1" d="M506.67 1276.87l195.43 0 0 456.62c-71.41,-28.89 -136.59,-72.2 -195.43,-130.7l0 -325.92z"/>
    <path class="fil1" d="M742.32 1197.01l195.43 0 0 580.65c-69.34,-0.41 -134.51,-10.15 -195.43,-29.64l0 -551.01z"/>
    <path class="fil1" d="M982.77 1110.54l195.43 0 0 625.75c-60.71,23.49 -125.89,36.7 -195.43,40.34l0 -666.09z"/>
    <path class="fil1" d="M1421.68 1005.69l-195.43 0 0 709.37c62.98,-31.41 120.7,-75.03 173.01,-131.76 7.77,-8.42 15.24,-17.04 22.41,-25.83l0 -189.4 -108.33 -10.62 108.33 -158.64 0 -193.12z"/>
   </g>
  </g>
 </g>
</svg>
