<?xml version="1.0" encoding="UTF-8"?>
<!DOCTYPE svg PUBLIC "-//W3C//DTD SVG 1.1//EN" "http://www.w3.org/Graphics/SVG/1.1/DTD/svg11.dtd">
<!-- Creator: CorelDRAW 2019 (64 Bit) -->
<?xml-stylesheet href="OrgaMoney - P.css" type="text/css"?>
<svg xmlns="http://www.w3.org/2000/svg" xml:space="preserve" width="286.409mm" height="210.924mm" version="1.1" style="shape-rendering:geometricPrecision; text-rendering:geometricPrecision; image-rendering:optimizeQuality; fill-rule:evenodd; clip-rule:evenodd"
viewBox="0 0 4192.31 3087.39"
 xmlns:xlink="http://www.w3.org/1999/xlink">
 <g id="Camada_x0020_1">
  <metadata id="CorelCorpID_0Corel-Layer"/>
  <g id="_2468893120656">
   <g>
    <path class="fil0" d="M1668.86 1049.29c-14.75,51.98 -34.19,101.49 -58.31,148.5 -62.1,121.37 -149.95,213.1 -263.55,275.19 -113.96,62.45 -236.74,93.5 -368.34,93.5 -142.89,0 -270.25,-34.58 -382.8,-103.37 -112.19,-68.8 -197.58,-162.65 -255.44,-281.9 -57.86,-118.9 -86.79,-244.85 -86.79,-377.86 0,-251.2 67.74,-448.07 202.87,-590.26 135.13,-142.18 309.42,-213.1 523.22,-213.1 140.07,0 266.02,33.52 378.57,100.2l-1.67 0.49c156.29,101.9 250.4,236.09 296.78,395.08l-166.81 244.3c-10.74,-313.07 -145.41,-501.06 -409.81,-558.13 -30.92,-5.57 -62.92,-8.35 -96,-8.35 -141.83,0 -263.9,48.69 -366.22,146.06 -102.32,97.38 -153.48,259.67 -153.48,487.23 0,182.4 49.04,326 147.12,430.79 98.08,104.78 221.22,157.35 369.4,157.35 151,0 274.84,-52.92 372.57,-158.77 51.05,-55.49 88.72,-123.2 113,-203.12l-148.48 -14.56 354.23 -518.76 110.33 557.47 -110.4 -8z"/>
    <g>
     <path class="fil1" d="M642.89 980.98l150.15 0 0 350.8c-54.86,-22.19 -104.94,-55.47 -150.15,-100.41l0 -250.39z"/>
     <path class="fil1" d="M823.94 919.63l150.15 0 0 446.1c-53.27,-0.31 -103.34,-7.8 -150.15,-22.77l0 -423.33z"/>
     <path class="fil1" d="M1008.67 853.2l150.14 0 0 480.74c-46.64,18.05 -96.72,28.19 -150.14,30.99l0 -511.74z"/>
     <path class="fil1" d="M1345.88 772.65l-150.14 0 0 544.99c48.38,-24.13 92.73,-57.65 132.92,-101.23 5.97,-6.47 11.71,-13.09 17.22,-19.84l0 -145.51 -83.22 -8.16 83.22 -121.88 0 -148.37z"/>
    </g>
   </g>
   <polygon class="fil2" points="768.21,1700.24 908.46,1700.24 908.46,2769.01 762.19,2769.01 762.19,1968.69 769.72,2015.6 506.54,2620.49 402.17,2620.49 138.99,2030.4 146.27,1968.69 146.27,2769.01 -0,2769.01 -0,1700.24 140.5,1700.24 454.35,2405.98 "/>
   <path id="1" class="fil2" d="M1451.13 2780.05c-66.23,0 -122.68,-13.05 -169.85,-38.89 -46.92,-26.09 -83.04,-63.98 -107.63,-113.65 -24.84,-49.68 -37.13,-109.64 -37.13,-179.63l0 -124.19c0,-69.24 12.29,-128.45 37.13,-177.63 24.59,-49.17 60.71,-86.81 107.63,-112.4 47.17,-25.84 103.62,-38.64 169.85,-38.64 65.98,0 122.68,12.79 169.85,38.64 46.92,25.59 82.79,63.22 107.63,112.4 24.59,49.17 37.13,108.38 37.13,177.63l0 126.2c0,69.75 -12.54,129.21 -37.13,178.38 -24.84,49.17 -60.71,86.81 -107.63,112.9 -47.17,25.84 -103.87,38.89 -169.85,38.89zm0 -142.5c52.44,0 92.83,-16.56 121.68,-49.42 28.6,-32.87 42.9,-78.78 42.9,-138.24l0 -126.2c0,-59.46 -14.3,-105.12 -42.9,-137.49 -28.85,-32.36 -69.24,-48.67 -121.68,-48.67 -52.44,0 -93.08,16.31 -121.68,48.67 -28.6,32.36 -42.9,78.03 -42.9,137.49l0 126.2c0,59.46 14.3,105.37 42.9,138.24 28.6,32.87 69.24,49.42 121.68,49.42z"/>
   <path id="2" class="fil2" d="M1978.99 2006.07l149.78 0 0 762.94 -149.78 0 0 -762.94zm463.14 300.56c0,-53.94 -14.05,-95.59 -42.15,-124.94 -27.85,-29.35 -66.99,-44.16 -117.41,-44.16 -49.17,0 -86.81,13.05 -113.65,39.14 -26.59,25.84 -40.14,62.47 -40.14,109.39l-15.3 -147.02c23.58,-45.91 54.19,-81.54 92.33,-106.63 37.88,-24.84 79.78,-37.38 125.95,-37.38 82.79,0 146.77,27.1 192.18,81.29 45.41,54.19 67.99,130.71 67.99,229.56l0 463.14 -149.78 0 0 -462.38z"/>
   <path id="3" class="fil2" d="M3132.32 2780.05c-70.5,0 -130.96,-13.3 -180.89,-39.64 -49.93,-26.59 -88.06,-65.48 -114.15,-116.66 -26.34,-51.18 -39.39,-112.9 -39.39,-185.4l0 -86.05c0,-75.52 12.54,-140 37.88,-193.43 25.09,-53.44 61.72,-94.08 109.89,-121.93 47.92,-27.85 105.87,-41.9 173.36,-41.9 63.73,0 118.17,16.06 163.33,47.67 44.91,31.86 79.28,78.03 103.11,138.24 23.83,60.21 35.63,132.72 35.63,217.02l0 49.93 -514.32 0 0 -120.68 371.81 0 0 0c-4.52,-62.22 -20.57,-110.64 -48.17,-145.01 -27.6,-34.62 -64.73,-51.93 -111.39,-51.93 -56.7,0 -100.86,18.56 -131.97,55.95 -31.11,37.13 -46.66,89.82 -46.66,158.06l0 96.84c0,63.22 16.81,111.9 49.93,145.51 33.37,33.87 80.79,50.93 142,50.93 30.36,0 60.46,-6.27 90.32,-18.56 29.85,-12.04 56.7,-29.35 80.28,-51.43l0 0 98.35 98.6 0 0c-37.63,36.13 -80.03,64.23 -127.2,84.05 -46.92,19.82 -94.33,29.86 -141.75,29.86z"/>
   <path id="4" class="fil2" d="M4192.31 2006.07l-324.9 941.58c-11.79,34.87 -27.1,62.22 -46.41,82.54 -19.07,20.57 -42.65,35.12 -70.5,43.91 -27.85,8.78 -62.22,13.3 -102.86,13.3l-30.11 0 0 -144.26 30.11 0c27.85,0 50.18,-5.52 66.48,-16.81 16.56,-11.29 30.86,-30.61 42.9,-57.96l282.25 -862.3 153.04 0zm-675.39 0l152.79 0 234.33 663.09 -83.04 162.32 -304.07 -825.42z"/>
   <path class="fil3" d="M1926.32 617.46l149.78 0 0 762.94 -149.78 0 0 -762.94zm419.73 180.89c-13.3,-16.31 -30.11,-28.6 -50.18,-36.88 -20.07,-8.28 -43.15,-12.54 -69.75,-12.54 -47.42,0 -84.3,13.3 -110.64,39.39 -26.09,26.34 -39.39,62.72 -39.39,109.14l-15.3 -147.02c23.58,-45.41 53.94,-81.04 91.07,-106.13 37.38,-25.34 78.53,-37.88 123.44,-37.88 34.87,0 66.48,5.02 94.58,15.05 28.1,10.04 52.69,24.84 73.76,44.41l-97.59 132.47z"/>
   <path id="1" class="fil3" d="M2809.69 1690.5c-57.2,0 -108.63,-10.54 -153.79,-31.86 -45.41,-21.33 -80.53,-51.43 -105.62,-90.07l0 0 101.36 -91.82 0 0c19.82,26.84 43.15,47.67 70.25,62.47 27.35,14.55 55.7,22.08 85.55,22.08 57.45,0 101.86,-15.81 133.22,-47.42 31.36,-31.61 46.92,-76.27 46.92,-134.22l0 -762.19 150.03 0 0 740.11c0,70 -12.79,130.21 -38.64,180.14 -25.59,49.93 -62.97,88.06 -112.15,113.9 -48.92,26.09 -107.88,38.89 -177.13,38.89zm-13.8 -296.8c-55.95,0 -103.62,-12.29 -143.01,-36.38 -39.39,-24.34 -69.5,-59.71 -90.07,-106.37 -20.57,-46.41 -30.86,-102.36 -30.86,-167.59l0 -168.09c0,-65.73 10.04,-121.93 30.11,-168.34 20.07,-46.66 49.42,-82.04 87.81,-106.38 38.39,-24.08 84.55,-36.38 138.49,-36.38 45.16,0 86.56,11.79 123.94,35.38 37.38,23.58 67.74,56.45 90.82,99.1l-15.56 155.8c0,-32.11 -5.77,-59.96 -17.56,-83.04 -11.79,-22.83 -28.85,-40.39 -51.18,-52.44 -22.08,-12.04 -49.17,-18.06 -81.04,-18.06 -49.68,0 -87.81,15.56 -115.16,46.41 -27.1,30.86 -40.64,74.26 -40.64,129.96l0 166.09c0,55.45 13.55,98.1 40.64,128.45 27.35,30.11 65.48,45.16 115.16,45.16 31.86,0 58.96,-6.27 81.04,-18.82 22.33,-12.54 39.39,-30.61 51.18,-53.94 11.79,-23.58 17.56,-51.68 17.56,-84.55l10.29 160.82c-15.05,37.88 -39.89,69.5 -74.51,94.83 -34.62,25.59 -77.02,38.39 -127.45,38.39z"/>
   <path id="2" class="fil3" d="M3796.17 896.7c0,-49.93 -13.55,-88.81 -40.14,-116.41 -26.84,-27.6 -64.48,-41.65 -113.65,-41.65 -30.36,0 -59.96,4.77 -89.31,14.05 -29.1,9.28 -54.94,22.33 -77.52,38.89l-109.39 -75.01c28.85,-34.62 66.99,-61.72 114.15,-81.04 47.42,-19.32 99.85,-29.1 157.81,-29.1 63.22,0 117.16,11.04 162.32,33.37 45.16,22.33 79.53,54.69 102.86,97.09 23.58,42.4 35.38,93.58 35.38,153.29l0 490.23 -142.5 0 0 -483.71zm-186.91 494.75c-94.08,0 -164.33,-19.57 -210.74,-58.46 -46.66,-38.89 -70,-98.1 -70,-177.63 0,-75.27 21.33,-131.97 63.98,-169.6 42.65,-37.88 107.13,-56.7 193.43,-56.7l216.77 0 10.29 120.68 -226.3 0c-39.39,0 -68.49,8.53 -87.81,26.09 -19.57,17.31 -29.1,43.91 -29.1,79.53 0,38.89 12.79,67.49 38.64,86.05 25.59,18.57 64.73,28.1 117.16,28.1 57.2,0 100.1,-6.27 128.2,-18.56 28.1,-12.04 42.4,-31.36 42.4,-57.2l15.3 107.38c-13.3,20.57 -29.6,37.38 -48.92,50.68 -19.32,13.05 -41.65,23.08 -67.24,29.61 -25.34,6.77 -54.19,10.04 -86.06,10.04z"/>
  </g>
 </g>
</svg>
